<svg viewBox="0 0 24 24" fill="#000000" xmlns="http://www.w3.org/2000/svg" id="Webhook-Fill--Streamline-Remix-Fill">
  <desc>
    Webhook Fill Streamline Icon: https://streamlinehq.com
  </desc>
  <path d="M13.5011 4.39885c1.2206 0.70472 1.7601 2.13962 1.3815 3.43616l1.9199 0.56059c0.6309 -2.16077 -0.264 -4.5525 -2.3014 -5.7288 -2.3915 -1.38071 -5.44941 -0.56133 -6.83012 1.83013 -1.20948 2.09488 -0.73074 4.70118 1.01411 6.24347l-1.88205 3.2598 -0.00324 0c-1.10456 0 -2 0.8955 -2 2 0 1.1046 0.89544 2 2 2 1.10457 0 2 -0.8954 2 -2 0 -0.1594 -0.01865 -0.3145 -0.0539 -0.4632 -0.08239 -0.3474 -0.10228 -0.7247 0.07625 -1.034l2.54495 -4.408 -0.866 -0.49999c-1.43487 -0.82843 -1.9265 -2.6632 -1.09807 -4.09808 0.82847 -1.43488 2.66317 -1.9265 4.09807 -1.09808Zm1.5302 13.68135c0.9335 0.9761 2.4459 1.2264 3.6665 0.5216 1.4349 -0.8284 1.9265 -2.6631 1.0981 -4.098 -0.8284 -1.4349 -2.6632 -1.9265 -4.0981 -1.0981l-0.866 0.5 -2.5454 -4.40882c-0.1785 -0.3092 -0.5153 -0.48065 -0.8573 -0.58302 -0.1464 -0.04381 -0.29 -0.10518 -0.428 -0.18489 -0.9566 -0.55229 -1.28437 -1.77547 -0.7321 -2.73205 0.5523 -0.95659 1.7755 -1.28434 2.7321 -0.73205 0.9566 0.55228 1.2843 1.77546 0.732 2.73205l-0.0017 0.00289 1.8825 3.26049c2.2081 -0.74 4.7046 0.1486 5.9141 2.2435 1.3807 2.3914 0.5613 5.4494 -1.8302 6.8301 -2.0374 1.1763 -4.5561 0.7554 -6.1119 -0.8714l1.4454 -1.3823ZM3.7998 16.0005c0 -1.4094 0.97291 -2.5941 2.28504 -2.9145l-0.47443 -1.9429c-2.18675 0.5339 -3.81061 2.5048 -3.81061 4.8574 0 2.7614 2.23858 5 5 5 2.41896 0 4.4367 -1.7178 4.9 -4h3.7643l0.0017 0.0031c0.5523 0.9566 1.7755 1.2843 2.7321 0.732 0.9566 -0.5523 1.2843 -1.7754 0.732 -2.732 -0.5523 -0.9566 -1.7754 -1.2844 -2.732 -0.7321 -0.1381 0.0797 -0.263 0.1734 -0.3741 0.2782 -0.2596 0.245 -0.5764 0.4508 -0.9334 0.4508H9.7998v1c0 1.6569 -1.34314 3 -3 3 -1.65685 0 -3 -1.3431 -3 -3Z" stroke-width="1"></path>
</svg>